<svg width="50" height="42" viewBox="0 0 50 42" fill="none" xmlns="http://www.w3.org/2000/svg">
<path d="M33.0762 -0.000961304H49.0185C48.5602 0.250673 48.0315 0.3411 47.5163 0.25598C43.1951 -0.194902 32.8872 5.41951 23.744 16.7731C17.7243 24.2479 14.9445 32.05 14.9445 35.9498C15.0322 37.3988 15.6575 38.7617 16.6965 39.7684C17.7356 40.7751 19.1125 41.3522 20.5544 41.3851C21.4081 41.3798 22.254 41.2204 23.0519 40.9145L22.3364 41.8039C21.3975 41.9622 20.4455 42.0272 19.494 41.9978H5.15455C3.86046 42.0413 2.60009 41.5777 1.6387 40.7047C0.677303 39.8317 0.0898593 38.6174 0 37.3173C0 29.7116 4.95941 21.4549 11.1805 14.1753C18.846 5.20457 28.0456 -0.0861885 33.1008 0.00151735" fill="#FC68A5"/>
</svg>
