<svg width="1340" height="35" viewBox="0 0 1340 35" fill="none" xmlns="http://www.w3.org/2000/svg">
<g clip-path="url(#clip0_159_218)">
<path d="M692.469 4.02603C692.445 3.41525 692.293 2.81641 692.024 2.2684C691.755 1.7204 691.375 1.23548 690.907 0.845146C690.256 0.323096 689.455 0.0266616 688.624 0C688.618 0 684.641 0 684.619 0C684.963 0.0102941 684.005 0.3325 684.356 0.328383C686.843 0.303677 687.695 0.869851 688.404 1.41853C689.197 1.99834 689.758 2.8459 689.983 3.80676C690.557 6.55735 688.675 11.5716 685.78 16.0774H688.195C691.041 11.5716 692.747 7.06589 692.466 4.02603" fill="#FC68A5"/>
<path d="M680.469 23.9957C675.356 29.6574 669.783 33.5373 665.454 34.7376C665.193 34.8107 665.045 34.856 664.793 34.9095C669.151 35.4046 676.77 30.8083 683.135 23.7661C684.527 22.2176 685.823 20.5843 687.015 18.8754H684.551C683.298 20.6662 681.935 22.3763 680.469 23.9957Z" fill="#FC68A5"/>
<path d="M685.107 3.70279C685.681 6.45338 683.798 11.5716 680.905 16.0774H683.321C686.166 11.5716 687.831 7.01853 687.547 3.98177C687.531 3.38034 687.387 2.78933 687.125 2.24836C686.864 1.70739 686.49 1.22895 686.03 0.845146C685.38 0.322979 684.579 0.0265153 683.747 0C683.747 0 679.765 0 679.743 0C680.088 0.0113235 682.994 0.328383 682.994 0.328383C683.596 0.670855 684.104 1.15826 684.473 1.74697C684.842 2.33567 685.061 3.00731 685.109 3.70177" fill="#FC68A5"/>
<path d="M675.118 23.9957C670.004 29.6574 664.433 33.5373 660.104 34.7376C659.841 34.8107 659.695 34.856 659.441 34.9095C663.798 35.4046 671.418 30.8083 677.786 23.7661C679.176 22.2172 680.471 20.5839 681.663 18.8754H679.201C677.947 20.6659 676.583 22.376 675.118 23.9957Z" fill="#FC68A5"/>
<path d="M679.97 3.80676C680.543 6.55735 678.66 11.5706 675.767 16.0774H678.183C681.028 11.5706 682.699 7.09985 682.418 4.06103C682.401 3.44759 682.257 2.84448 681.994 2.29059C681.732 1.73669 681.357 1.2443 680.894 0.845146C680.243 0.323018 679.441 0.0265881 678.609 0C678.609 0 676.475 0 676.453 0C676.797 0.0102941 677.043 0.328383 677.388 0.328383C678.108 0.59185 678.737 1.0614 679.196 1.67934C679.654 2.29729 679.923 3.0367 679.97 3.80676Z" fill="#FC68A5"/>
<path d="M669.721 23.9957C664.607 29.6574 659.037 33.5373 654.708 34.7376C654.443 34.8107 654.299 34.856 654.043 34.9095C658.4 35.4046 666.021 30.8083 672.389 23.7661C673.78 22.2168 675.075 20.5835 676.268 18.8754H673.804C672.55 20.6657 671.186 22.3757 669.721 23.9957Z" fill="#FC68A5"/>
<path d="M675.067 0.00305176H688.353C687.971 0.212747 687.53 0.288103 687.101 0.21717C683.5 -0.158566 674.91 4.52011 667.29 13.9814C662.274 20.2104 659.958 26.7122 659.958 29.962C660.031 31.1695 660.552 32.3053 661.418 33.1442C662.283 33.9831 663.431 34.464 664.632 34.4914C665.344 34.487 666.049 34.3542 666.714 34.0992L666.117 34.8404C665.335 34.9724 664.542 35.0265 663.749 35.002H651.799C650.721 35.0382 649.671 34.6519 648.869 33.9245C648.068 33.197 647.579 32.185 647.504 31.1016C647.504 24.7635 651.637 17.8829 656.821 11.8166C663.209 4.341 670.875 -0.0679709 675.088 0.0051173" fill="#FC68A5"/>
</g>
<defs>
<clipPath id="clip0_159_218">
<rect width="1340" height="35.0078" fill="white"/>
</clipPath>
</defs>
</svg>
