<svg width="54" height="42" viewBox="0 0 54 42" fill="none" xmlns="http://www.w3.org/2000/svg">
<g clip-path="url(#clip0_159_100)">
<path d="M53.963 4.83026C53.934 4.09732 53.7522 3.37871 53.4293 2.72111C53.1065 2.0635 52.6498 1.48159 52.089 1.0132C51.3079 0.386739 50.3467 0.0310174 49.3485 -0.000976562C49.3423 -0.000976562 44.5695 -0.000976562 44.5425 -0.000976562C44.9561 0.0113764 43.8061 0.398024 44.2271 0.393083C47.2118 0.363436 48.2341 1.04284 49.0846 1.70126C50.0371 2.39704 50.7096 3.4141 50.9795 4.56714C51.668 7.86784 49.4098 13.885 45.9367 19.2919H48.8342C52.2497 13.885 54.2968 8.47809 53.9593 4.83026" fill="#FC68A5"/>
<path d="M39.5635 28.7938C33.4271 35.5879 26.7397 40.2437 21.5446 41.6841C21.2317 41.7718 21.0537 41.8261 20.7518 41.8904C25.9812 42.4845 35.1244 36.9689 42.7617 28.5183C44.4321 26.6601 45.9871 24.7001 47.418 22.6494H44.4615C42.9578 24.7984 41.3219 26.8505 39.5635 28.7938Z" fill="#FC68A5"/>
<path d="M45.1292 4.44238C45.8177 7.74308 43.5583 13.885 40.0863 19.2919H42.9851C46.3994 13.885 48.3974 8.42126 48.0562 4.77715C48.0369 4.05543 47.8645 3.34622 47.5506 2.69705C47.2367 2.04789 46.7886 1.47377 46.2362 1.0132C45.4557 0.386598 44.4948 0.0308418 43.4969 -0.000976562C43.4969 -0.000976562 38.7179 -0.000976562 38.6921 -0.000976562C39.1057 0.0126117 42.5924 0.393083 42.5924 0.393083C43.315 0.80405 43.925 1.38893 44.3679 2.09538C44.8108 2.80183 45.0728 3.6078 45.1304 4.44114" fill="#FC68A5"/>
<path d="M33.1411 28.7938C27.0047 35.5879 20.3198 40.2437 15.1247 41.6841C14.8093 41.7718 14.6338 41.8261 14.3295 41.8904C19.5577 42.4845 28.7021 36.9689 36.3431 28.5183C38.0117 26.6596 39.5654 24.6996 40.9956 22.6494H38.0416C36.5366 24.7981 34.9 26.8502 33.1411 28.7938Z" fill="#FC68A5"/>
<path d="M38.9645 4.56714C39.6518 7.86784 37.3924 13.8837 33.9204 19.2919H36.8192C40.2335 13.8837 42.2389 8.51885 41.9014 4.87226C41.8813 4.13613 41.7082 3.4124 41.3932 2.74773C41.0783 2.08306 40.6284 1.49218 40.0727 1.0132C39.2912 0.386646 38.3296 0.0309291 37.331 -0.000976562C37.331 -0.000976562 34.7697 -0.000976562 34.7439 -0.000976562C35.1563 0.0113764 35.4521 0.393083 35.8656 0.393083C36.7302 0.709243 37.4841 1.27271 38.0348 2.01424C38.5856 2.75577 38.9079 3.64307 38.9645 4.56714Z" fill="#FC68A5"/>
<path d="M26.6648 28.7938C20.5284 35.5879 13.8447 40.2437 8.64966 41.6841C8.33179 41.7718 8.15875 41.8261 7.85193 41.8904C13.0801 42.4845 22.2257 36.9689 29.8667 28.5183C31.5356 26.6591 33.0901 24.6992 34.5218 22.6494H31.5653C30.0603 24.7978 28.4229 26.8499 26.6648 28.7938Z" fill="#FC68A5"/>
<path d="M33.081 0.00292969H49.0233C48.5649 0.254564 48.0363 0.344991 47.5211 0.259871C43.1999 -0.191011 32.892 5.4234 23.7488 16.777C17.729 24.2518 14.9493 32.0539 14.9493 35.9537C15.0369 37.4027 15.6622 38.7656 16.7013 39.7723C17.7404 40.779 19.1173 41.3561 20.5591 41.389C21.4129 41.3837 22.2588 41.2243 23.0566 40.9184L22.3411 41.8078C21.4023 41.9661 20.4502 42.031 19.4988 42.0017H5.15931C3.86522 42.0452 2.60485 41.5816 1.64346 40.7086C0.682064 39.8356 0.09462 38.6213 0.00476074 37.3212C0.00476074 29.7155 4.96417 21.4588 11.1852 14.1792C18.8508 5.20847 28.0504 -0.0822975 33.1055 0.00540834" fill="#FC68A5"/>
</g>
<defs>
<clipPath id="clip0_159_100">
<rect width="54" height="42" fill="white"/>
</clipPath>
</defs>
</svg>
