<svg width="9" height="17" viewBox="0 0 9 17" fill="none" xmlns="http://www.w3.org/2000/svg">
<path d="M8.78007 9.03849L1.28007 16.5385C1.21038 16.6082 1.12766 16.6634 1.03661 16.7012C0.945568 16.7389 0.847987 16.7583 0.74944 16.7583C0.650894 16.7583 0.553313 16.7389 0.462268 16.7012C0.371223 16.6634 0.288498 16.6082 0.218815 16.5385C0.149132 16.4688 0.0938572 16.3861 0.0561452 16.295C0.0184332 16.204 -0.000976563 16.1064 -0.000976562 16.0079C-0.000976563 15.9093 0.0184332 15.8117 0.0561452 15.7207C0.0938572 15.6296 0.149132 15.5469 0.218815 15.4772L7.18913 8.50786L0.218815 1.53849C0.0780846 1.39776 -0.000976564 1.20689 -0.000976562 1.00786C-0.000976561 0.80884 0.0780846 0.617969 0.218815 0.477238C0.359546 0.336508 0.550417 0.257446 0.74944 0.257446C0.948463 0.257446 1.13934 0.336508 1.28007 0.477238L8.78007 7.97724C8.8498 8.04689 8.90512 8.12961 8.94286 8.22066C8.9806 8.31171 9.00003 8.4093 9.00003 8.50786C9.00003 8.60642 8.9806 8.70402 8.94286 8.79507C8.90512 8.88612 8.8498 8.96883 8.78007 9.03849Z" fill="#3F3F3F"/>
</svg>
