<svg width="14" height="12" viewBox="0 0 14 12" fill="none" xmlns="http://www.w3.org/2000/svg">
<path d="M13.8289 6.42448L8.57909 11.8242C8.46964 11.9368 8.32119 12 8.1664 12C8.01161 12 7.86316 11.9368 7.7537 11.8242C7.64425 11.7116 7.58276 11.5589 7.58276 11.3997C7.58276 11.2405 7.64425 11.0878 7.7537 10.9752L12.0083 6.59997H0.583314C0.42861 6.59997 0.280242 6.53676 0.170849 6.42424C0.0614563 6.31172 0 6.15912 0 6C0 5.84088 0.0614563 5.68827 0.170849 5.57576C0.280242 5.46324 0.42861 5.40003 0.583314 5.40003H12.0083L7.7537 1.02478C7.64425 0.912198 7.58276 0.75951 7.58276 0.6003C7.58276 0.441091 7.64425 0.288402 7.7537 0.175824C7.86316 0.0632457 8.01161 0 8.1664 0C8.32119 0 8.46964 0.0632457 8.57909 0.175824L13.8289 5.57552C13.8832 5.63124 13.9262 5.69741 13.9555 5.77025C13.9849 5.84308 14 5.92115 14 6C14 6.07884 13.9849 6.15692 13.9555 6.22975C13.9262 6.30259 13.8832 6.36876 13.8289 6.42448Z" fill="#DA5761"/>
</svg>
