<svg width="10" height="18" viewBox="0 0 10 18" fill="none" xmlns="http://www.w3.org/2000/svg">
<path d="M0.330124 15.3301C0.11878 15.5414 4.76837e-05 15.8281 4.76837e-05 16.127C4.76837e-05 16.4258 0.11878 16.7125 0.330124 16.9238C0.541469 17.1352 0.828113 17.2539 1.127 17.2539C1.42589 17.2539 1.71253 17.1352 1.92387 16.9238L9.42387 9.42383C9.52875 9.31931 9.61197 9.19512 9.66875 9.05837C9.72553 8.92163 9.75476 8.77502 9.75476 8.62695C9.75476 8.47889 9.72553 8.33228 9.66875 8.19553C9.61197 8.05878 9.52875 7.93459 9.42387 7.83008L1.92387 0.330076C1.71253 0.118732 1.42589 -4.45375e-09 1.127 0C0.828113 4.45375e-09 0.541469 0.118732 0.330124 0.330077C0.11878 0.541421 4.76837e-05 0.828065 4.76837e-05 1.12695C4.76837e-05 1.42584 0.11878 1.71248 0.330124 1.92383L7.03231 8.62601L0.330124 15.3301Z" fill="#DA5761"/>
</svg>
