<svg width="10" height="8" viewBox="0 0 10 8" fill="none" xmlns="http://www.w3.org/2000/svg">
<path d="M9.21928 4.27517L5.7194 7.87497C5.64643 7.95002 5.54746 7.99219 5.44427 7.99219C5.34107 7.99219 5.24211 7.95002 5.16914 7.87497C5.09617 7.79992 5.05517 7.69813 5.05517 7.59199C5.05517 7.48585 5.09617 7.38405 5.16914 7.309L8.0055 4.39216H0.388876C0.28574 4.39216 0.186828 4.35002 0.113899 4.27501C0.0409708 4.2 0 4.09827 0 3.99219C0 3.88611 0.0409708 3.78437 0.113899 3.70936C0.186828 3.63435 0.28574 3.59221 0.388876 3.59221H8.0055L5.16914 0.675372C5.09617 0.60032 5.05517 0.498527 5.05517 0.392388C5.05517 0.286248 5.09617 0.184455 5.16914 0.109403C5.24211 0.0343513 5.34107 -0.0078125 5.44427 -0.0078125C5.54746 -0.0078125 5.64643 0.0343513 5.7194 0.109403L9.21928 3.7092C9.25544 3.74635 9.28412 3.79046 9.30369 3.83902C9.32326 3.88758 9.33333 3.93962 9.33333 3.99219C9.33333 4.04475 9.32326 4.0968 9.30369 4.14535C9.28412 4.19391 9.25544 4.23802 9.21928 4.27517Z" fill="black"/>
</svg>
