<svg width="24" height="24" viewBox="0 0 24 24" fill="none" xmlns="http://www.w3.org/2000/svg">
  <rect x="0.5" y="0.5" width="23" height="23" rx="5" fill="white"/>
  <path d="M18.0302 12.4415L13.5581 17.0412C13.4649 17.1371 13.3384 17.191 13.2066 17.191C13.0747 17.191 12.9482 17.1371 12.855 17.0412C12.7618 16.9453 12.7094 16.8152 12.7094 16.6796C12.7094 16.544 12.7618 16.4139 12.855 16.318L16.4793 12.5909L6.7469 12.5909C6.61511 12.5909 6.48872 12.5371 6.39554 12.4413C6.30235 12.3454 6.25 12.2154 6.25 12.0799C6.25 11.9443 6.30235 11.8143 6.39554 11.7185C6.48872 11.6226 6.61511 11.5688 6.7469 11.5688L16.4793 11.5688L12.855 7.84171C12.7618 7.74581 12.7094 7.61574 12.7094 7.48012C12.7094 7.34449 12.7618 7.21443 12.855 7.11853C12.9482 7.02263 13.0747 6.96875 13.2066 6.96875C13.3384 6.96875 13.4649 7.02263 13.5581 7.11853L18.0302 11.7183C18.0764 11.7657 18.113 11.8221 18.138 11.8841C18.1631 11.9462 18.1759 12.0127 18.1759 12.0799C18.1759 12.147 18.1631 12.2135 18.138 12.2756C18.113 12.3376 18.0764 12.394 18.0302 12.4415Z" fill="currentColor"/>
</svg>
