<svg width="10" height="9" viewBox="0 0 10 9" fill="none" xmlns="http://www.w3.org/2000/svg">
<path d="M9.21928 4.78298L5.7194 8.38278C5.64643 8.45784 5.54746 8.5 5.44427 8.5C5.34107 8.5 5.24211 8.45784 5.16914 8.38278C5.09617 8.30773 5.05517 8.20594 5.05517 8.0998C5.05517 7.99366 5.09617 7.89187 5.16914 7.81681L8.0055 4.89998H0.388876C0.28574 4.89998 0.186828 4.85784 0.113899 4.78283C0.0409708 4.70782 0 4.60608 0 4.5C0 4.39392 0.0409708 4.29218 0.113899 4.21717C0.186828 4.14216 0.28574 4.10002 0.388876 4.10002H8.0055L5.16914 1.18318C5.09617 1.10813 5.05517 1.00634 5.05517 0.9002C5.05517 0.79406 5.09617 0.692268 5.16914 0.617216C5.24211 0.542164 5.34107 0.5 5.44427 0.5C5.54746 0.5 5.64643 0.542164 5.7194 0.617216L9.21928 4.21702C9.25544 4.25416 9.28412 4.29828 9.30369 4.34683C9.32326 4.39539 9.33333 4.44744 9.33333 4.5C9.33333 4.55256 9.32326 4.60461 9.30369 4.65317C9.28412 4.70172 9.25544 4.74584 9.21928 4.78298Z" fill="black"/>
</svg>
