<svg width="10" height="8" viewBox="0 0 10 8" fill="none" xmlns="http://www.w3.org/2000/svg">
<path d="M9.21928 4.28298L5.7194 7.88278C5.64643 7.95784 5.54746 8 5.44427 8C5.34107 8 5.24211 7.95784 5.16914 7.88278C5.09617 7.80773 5.05517 7.70594 5.05517 7.5998C5.05517 7.49366 5.09617 7.39187 5.16914 7.31681L8.0055 4.39998H0.388876C0.28574 4.39998 0.186828 4.35784 0.113899 4.28283C0.0409708 4.20782 0 4.10608 0 4C0 3.89392 0.0409708 3.79218 0.113899 3.71717C0.186828 3.64216 0.28574 3.60002 0.388876 3.60002H8.0055L5.16914 0.683184C5.09617 0.608132 5.05517 0.50634 5.05517 0.4002C5.05517 0.29406 5.09617 0.192268 5.16914 0.117216C5.24211 0.0421638 5.34107 0 5.44427 0C5.54746 0 5.64643 0.0421638 5.7194 0.117216L9.21928 3.71702C9.25544 3.75416 9.28412 3.79828 9.30369 3.84683C9.32326 3.89539 9.33333 3.94744 9.33333 4C9.33333 4.05256 9.32326 4.10461 9.30369 4.15317C9.28412 4.20172 9.25544 4.24584 9.21928 4.28298Z" fill="black"/>
</svg>
