<svg width="26" height="25" viewBox="0 0 26 25" fill="none" xmlns="http://www.w3.org/2000/svg">
<path d="M25.8666 24.5001C25.7789 24.6521 25.6526 24.7783 25.5005 24.8661C25.3484 24.9539 25.1759 25 25.0003 25H0.99903C0.82357 24.9998 0.651246 24.9535 0.499362 24.8657C0.347477 24.7778 0.221377 24.6516 0.133726 24.4996C0.0460738 24.3477 -4.50128e-05 24.1753 3.29665e-08 23.9999C4.50787e-05 23.8245 0.0462524 23.6521 0.133982 23.5002C2.03784 20.2094 4.97175 17.8497 8.39569 16.7311C6.70205 15.7231 5.3862 14.1871 4.65021 12.359C3.91422 10.5309 3.79879 8.51174 4.32164 6.6117C4.84448 4.71165 5.9767 3.03573 7.54442 1.84131C9.11214 0.646882 11.0287 0 12.9997 0C14.9707 0 16.8872 0.646882 18.455 1.84131C20.0227 3.03573 21.1549 4.71165 21.6777 6.6117C22.2006 8.51174 22.0852 10.5309 21.3492 12.359C20.6132 14.1871 19.2973 15.7231 17.6037 16.7311C21.0276 17.8497 23.9615 20.2094 25.8654 23.5002C25.9534 23.6521 25.9998 23.8245 26 24C26.0002 24.1755 25.9542 24.348 25.8666 24.5001Z" fill="white"/>
</svg>
